<svg id="Avatar" height="512" viewBox="0 0 64 64" width="512" xmlns="http://www.w3.org/2000/svg"><g fill="#78b9eb"><path d="m52 56v5h-40v-5a8 8 0 0 1 8-8h6.38a5.658 5.658 0 0 0 11.24 0h6.38a8 8 0 0 1 8 8z"/><path d="m35.65 30.4 9.03 3.48a12.989 12.989 0 0 1 -23.75 3.92 12.768 12.768 0 0 1 -1.61-3.92l9.09-3.5a9.988 9.988 0 0 1 7.18 0z"/><path d="m19.32 33.88a12.768 12.768 0 0 0 1.61 3.92 5.989 5.989 0 0 1 -2.49 3.99l-5.87 4.11a1 1 0 0 1 -1.57-.82v-27.08a6.007 6.007 0 0 1 3.49-5.45 6.688 6.688 0 0 0 1.66 2.49 15.933 15.933 0 0 0 -1.15 5.96v8a2.006 2.006 0 0 0 2 2h2a13.037 13.037 0 0 0 .32 2.88z"/><path d="m49 21v4a2.687 2.687 0 0 1 -.05.57 2 2 0 0 0 -1.95-1.57h-3.2l-1.8-3h-13v-9l-9.23 12h-2.77a2.006 2.006 0 0 0 -2 2v-5a15.993 15.993 0 0 1 16-16h2a16 16 0 0 1 16 16z"/><path d="m21 3a6.961 6.961 0 0 1 5.48 2.65 16.025 16.025 0 0 0 -10.33 9.39 6.688 6.688 0 0 1 -1.66-2.49 6.77 6.77 0 0 1 -.49-2.55 7 7 0 0 1 7-7z"/></g><path d="m44 47h-5.35v-.05l-.21-3.53a14.014 14.014 0 0 0 7.51-11.42h1.05a3.009 3.009 0 0 0 3-3v-3a2.984 2.984 0 0 0 -.04-.42 4.344 4.344 0 0 0 .04-.58v-4a17.024 17.024 0 0 0 -17-17h-2a16.9 16.9 0 0 0 -4.17.54 7.92 7.92 0 0 0 -5.83-2.54 7.984 7.984 0 0 0 -7.72 10.08 7.028 7.028 0 0 0 -3.28 5.92v27.08a1.981 1.981 0 0 0 1.07 1.77 2.062 2.062 0 0 0 .93.23 1.975 1.975 0 0 0 1.14-.36l5.87-4.11a6.991 6.991 0 0 0 2.26-2.63 14.2 14.2 0 0 0 4.29 3.44l-.21 3.53v.05h-5.35a9.014 9.014 0 0 0 -9 9v5a1 1 0 0 0 1 1h40a1 1 0 0 0 1-1v-5a9.014 9.014 0 0 0 -9-9zm4-18a1 1 0 0 1 -1 1h-1v-4a1 1 0 0 0 -.14-.51l-.29-.49h1.43a1 1 0 0 1 1 1zm-17-23h2a15.018 15.018 0 0 1 15 15v2.18a3 3 0 0 0 -1-.18h-2.63l-1.51-2.51a.99.99 0 0 0 -.86-.49h-12v-8a1 1 0 0 0 -1.79-.61l-8.93 11.61h-2.28a3 3 0 0 0 -1 .18v-2.18a15.018 15.018 0 0 1 15-15zm-13 19v5h-1a1 1 0 0 1 -1-1v-3a1 1 0 0 1 1-1zm3-21a5.939 5.939 0 0 1 3.65 1.24 17.093 17.093 0 0 0 -8.73 7.94 5.874 5.874 0 0 1 -.92-3.18 6 6 0 0 1 6-6zm-3.13 36.97-5.87 4.11v-27.08a5.011 5.011 0 0 1 2.06-4.03 7.608 7.608 0 0 0 .95 1.32 16.887 16.887 0 0 0 -1.01 5.71v8a3.009 3.009 0 0 0 3 3h1.05a13.89 13.89 0 0 0 1.81 5.95 5.006 5.006 0 0 1 -1.99 3.02zm2.13-9.97v-5.66l8-10.4v6.06a1 1 0 0 0 1 1h12.43l2.57 4.28v4.72a12.321 12.321 0 0 1 -.1 1.5l-7.95-3.05a10.981 10.981 0 0 0 -7.9 0l-7.95 3.05a12.321 12.321 0 0 1 -.1-1.5zm.52 3.49 8.25-3.18a8.994 8.994 0 0 1 6.46 0l8.25 3.18a12 12 0 0 1 -22.96 0zm16.13 12.58a4.474 4.474 0 0 1 -.02.82 4.662 4.662 0 0 1 -9.26-.01 4.343 4.343 0 0 1 -.02-.81l.17-2.82a13.755 13.755 0 0 0 8.96 0zm14.35 12.93h-38v-4a7.008 7.008 0 0 1 7-7h5.56a6.647 6.647 0 0 0 12.88 0h5.56a7.008 7.008 0 0 1 7 7z" fill="#006df0"/><path d="m27 24a1 1 0 0 0 -1 1v2a1 1 0 0 0 2 0v-2a1 1 0 0 0 -1-1z" fill="#006df0"/><path d="m37 28a1 1 0 0 0 1-1v-2a1 1 0 0 0 -2 0v2a1 1 0 0 0 1 1z" fill="#006df0"/></svg>