<?xml version="1.0" standalone="no"?>
<!DOCTYPE svg PUBLIC "-//W3C//DTD SVG 20010904//EN"
 "http://www.w3.org/TR/2001/REC-SVG-20010904/DTD/svg10.dtd">
<svg version="1.0" xmlns="http://www.w3.org/2000/svg"
 width="840.000000pt" height="442.000000pt" viewBox="0 0 840.000000 442.000000"
 preserveAspectRatio="xMidYMid meet">
<metadata>
Created by potrace 1.16, written by Peter Selinger 2001-2019
</metadata>
<g transform="translate(0.000000,442.000000) scale(0.100000,-0.100000)"
fill="#000000" stroke="none">
<path d="M2200 2210 l0 -1810 1835 0 1835 0 -2 1167 -3 1168 -147 3 -148 3 0
-1021 0 -1020 -125 0 -125 0 0 675 0 675 -150 0 -150 0 0 -675 0 -675 -125 0
-125 0 0 845 0 845 -150 0 -150 0 0 -845 0 -845 -125 0 -125 0 0 760 0 760
-145 0 -145 0 0 -760 0 -760 -125 0 -125 0 -2 588 -3 587 -147 3 -148 3 0
-591 0 -590 -125 0 -125 0 0 415 0 415 -150 0 -150 0 0 -415 0 -415 -165 0
-165 0 0 474 0 473 922 673 c508 371 927 673 933 673 5 0 148 -59 317 -131
168 -73 312 -132 318 -132 6 0 235 204 509 454 l498 454 102 -101 101 -102 0
293 0 292 -285 0 c-157 0 -285 -3 -285 -8 0 -4 34 -41 75 -82 41 -41 75 -78
75 -82 0 -4 -174 -165 -387 -359 -214 -194 -404 -367 -423 -385 l-35 -33 -310
133 -310 134 -45 -32 c-41 -30 -238 -173 -1385 -1010 l-380 -277 -3 1000 -2
1001 -150 0 -150 0 0 -1810z"/>
</g>
</svg>
