<?xml version="1.0" standalone="no"?>
<!DOCTYPE svg PUBLIC "-//W3C//DTD SVG 20010904//EN"
 "http://www.w3.org/TR/2001/REC-SVG-20010904/DTD/svg10.dtd">
<svg version="1.0" xmlns="http://www.w3.org/2000/svg"
 width="820.000000pt" height="674.000000pt" viewBox="0 0 820.000000 674.000000"
 preserveAspectRatio="xMidYMid meet">
<metadata>
Created by potrace 1.16, written by Peter Selinger 2001-2019
</metadata>
<g transform="translate(0.000000,674.000000) scale(0.100000,-0.100000)"
fill="#000000" stroke="none">
<path d="M175 6327 c-61 -28 -59 -18 -66 -406 -10 -509 -9 -5245 0 -5492 7
-191 10 -209 30 -238 l22 -31 3940 0 3939 0 25 39 c51 77 42 198 -20 265 l-24
26 -3795 0 -3795 0 -3 2878 c-2 2220 -6 2883 -15 2904 -7 15 -27 35 -45 44
-43 23 -154 29 -193 11z"/>
<path d="M7105 6269 c-104 -28 -293 -79 -420 -115 -445 -126 -574 -166 -580
-182 -8 -23 17 -55 149 -190 l120 -123 -694 -694 c-382 -382 -700 -695 -706
-695 -6 0 -100 123 -209 273 -471 644 -759 1036 -914 1242 -275 367 -261 354
-365 355 -52 0 -70 -6 -145 -46 -107 -58 -341 -204 -951 -594 -977 -624 -1349
-869 -1383 -910 -51 -61 -58 -160 -16 -241 36 -71 103 -104 199 -97 85 6 63
-7 1415 854 838 535 814 519 824 508 5 -5 291 -396 636 -869 346 -473 654
-892 686 -930 32 -39 77 -81 100 -94 37 -21 50 -23 122 -18 l80 5 824 824 823
823 127 -126 c202 -198 218 -208 246 -141 28 63 219 794 281 1075 31 135 27
157 -27 156 -18 0 -117 -23 -222 -50z"/>
<path d="M6276 4311 c-49 -5 -62 -11 -80 -34 l-21 -28 -3 -1404 c-1 -773 1
-1531 6 -1686 9 -268 10 -282 31 -302 22 -22 22 -22 594 -24 l572 -3 19 27
c15 20 22 54 28 137 5 61 7 815 6 1676 -2 1213 -6 1571 -15 1593 -7 15 -25 33
-40 39 -31 13 -987 21 -1097 9z"/>
<path d="M2692 3921 c-69 -12 -74 -23 -84 -168 -13 -181 -4 -2796 9 -2851 20
-82 -20 -77 561 -77 494 1 610 5 641 25 9 5 18 35 22 77 5 37 8 716 8 1508 l1
1440 -37 25 -37 25 -520 2 c-287 0 -540 -2 -564 -6z"/>
<path d="M4416 3040 l-36 -40 0 -1053 0 -1054 23 -20 c53 -49 39 -48 616 -51
l544 -3 44 43 43 42 0 1045 0 1045 -42 43 -42 43 -557 0 -557 0 -36 -40z"/>
<path d="M891 2653 c-14 -3 -35 -12 -48 -20 l-24 -16 3 -866 c2 -661 6 -871
15 -887 8 -14 27 -24 50 -28 76 -12 1056 -19 1099 -7 58 16 65 38 75 231 10
202 10 1164 0 1388 -6 150 -9 164 -29 185 l-23 22 -547 1 c-301 1 -558 -1
-571 -3z"/>
</g>
</svg>
